<?xml version="1.0" encoding="UTF-8" standalone="no"?><!DOCTYPE svg PUBLIC "-//W3C//DTD SVG 1.1//EN" "http://www.w3.org/Graphics/SVG/1.1/DTD/svg11.dtd"><svg width="100%" height="100%" viewBox="0 0 26 19" version="1.1" xmlns="http://www.w3.org/2000/svg" xmlns:xlink="http://www.w3.org/1999/xlink" xml:space="preserve" style="fill-rule:evenodd;clip-rule:evenodd;stroke-linejoin:round;stroke-miterlimit:1.41421;"><path d="M18.573,16.5c-1.056,0 -2.053,-0.25 -2.948,-0.686l0.397,2.936l-16.022,0l1.457,-12.75l2.913,0l0,-1.5c0,-2.377 1.509,-4.5 3.642,-4.5c2.133,0 3.642,2.123 3.642,4.5l0,1.5l0.825,0c1.168,-2.233 3.459,-3.75 6.094,-3.75c3.821,0 6.92,3.19 6.92,7.125c0,3.935 -3.099,7.125 -6.92,7.125ZM10.925,4.5c0,-1.719 -1.371,-3.75 -2.913,-3.75c-1.543,0 -2.914,2.031 -2.914,3.75l0,1.5l5.827,0l0,-1.5ZM12.145,6.75l-0.491,0l-2.913,0l-0.729,0l-3.642,0l-2.185,0l-1.457,11.25l14.567,0l-0.406,-2.602c-1.942,-1.261 -3.236,-3.484 -3.236,-6.023c0.001,-0.928 0.178,-1.812 0.492,-2.625ZM18.75,3c-3.556,0 -6.382,2.66 -6.382,6.375c0,3.562 2.83,6.375 6.382,6.375c3.313,0 6,-2.855 6,-6.375c0,-3.521 -2.687,-6.375 -6,-6.375ZM18.75,12l-0.75,0l0,-2.25l-2.25,0l0,-0.75l2.25,0l0,-2.25l0.75,0l0,2.25l2.25,0l0,0.75l-2.25,0l0,2.25Z" style="fill:#000;"/></svg>