<?xml version="1.0" encoding="UTF-8" standalone="no"?><!DOCTYPE svg PUBLIC "-//W3C//DTD SVG 1.1//EN" "http://www.w3.org/Graphics/SVG/1.1/DTD/svg11.dtd"><svg width="100%" height="100%" viewBox="0 0 17 20" version="1.1" xmlns="http://www.w3.org/2000/svg" xmlns:xlink="http://www.w3.org/1999/xlink" xml:space="preserve" style="fill-rule:evenodd;clip-rule:evenodd;stroke-linejoin:round;stroke-miterlimit:1.41421;"><path d="M15,6l-3,0l0,-1.5c0,-2.377 -1.553,-4.5 -3.75,-4.5c-2.197,0 -3.75,2.123 -3.75,4.5l0,1.5l-3,0l-1.5,13.5l16.499,0l-1.499,-13.5ZM5.25,4.5c0,-1.718 1.412,-3.75 3,-3.75c1.588,0 3,2.032 3,3.75l0,1.5l-6,0l0,-1.5ZM9,6.75l5.25,0l1.5,12l-15,0l1.5,-12l6,0" style="fill:#111;"/></svg>