<?xml version="1.0" encoding="UTF-8" standalone="no"?><!DOCTYPE svg PUBLIC "-//W3C//DTD SVG 1.1//EN" "http://www.w3.org/Graphics/SVG/1.1/DTD/svg11.dtd"><svg width="100%" height="100%" viewBox="0 0 15 15" version="1.1" xmlns="http://www.w3.org/2000/svg" xmlns:xlink="http://www.w3.org/1999/xlink" xml:space="preserve" style="fill-rule:evenodd;clip-rule:evenodd;stroke-linejoin:round;stroke-miterlimit:1.41421;"><path d="M14.25,13.5l-3,-3c0.893,-1.087 1.372,-2.669 1.372,-4.189c0,-3.484 -2.826,-6.311 -6.311,-6.311c-3.487,0 -6.311,2.828 -6.311,6.311c0,3.485 2.824,6.311 6.311,6.311c1.52,0 3.101,-0.479 4.189,-1.372l3,3c0.245,0.245 0.505,0.245 0.75,0c0.245,-0.241 0.245,-0.509 0,-0.75ZM6.383,11.999c-3.101,0 -5.621,-2.52 -5.621,-5.617c0,-3.097 2.52,-5.62 5.621,-5.62c3.096,0 5.62,2.523 5.62,5.621c0,3.096 -2.524,5.616 -5.621,5.616Z" style="fill:#fff;"/></svg>