<?xml version="1.0" encoding="UTF-8" standalone="no"?><!DOCTYPE svg PUBLIC "-//W3C//DTD SVG 1.1//EN" "http://www.w3.org/Graphics/SVG/1.1/DTD/svg11.dtd"><svg width="100%" height="100%" viewBox="0 0 20 15" version="1.1" xmlns="http://www.w3.org/2000/svg" xmlns:xlink="http://www.w3.org/1999/xlink" xml:space="preserve" style="fill-rule:evenodd;clip-rule:evenodd;stroke-linejoin:round;stroke-miterlimit:1.41421;"><path d="M19.423,0.12c-0.071,-0.09 -0.181,-0.131 -0.29,-0.117c-0.025,0 -0.048,0.005 -0.073,0.012l-18.821,5.259c-0.138,0.039 -0.235,0.165 -0.239,0.312c-0.004,0.147 0.087,0.28 0.223,0.326l6.887,2.317l-0.616,5.063c-0.016,0.133 0.047,0.263 0.16,0.33c0.05,0.03 0.106,0.044 0.161,0.044c0.07,0 0.14,-0.023 0.198,-0.069l2.52,-1.982l2.21,3.242c0.061,0.09 0.16,0.143 0.265,0.143c0.008,0 0.015,0 0.023,-0.001c0.113,-0.008 0.214,-0.077 0.266,-0.181l7.161,-14.336c0.06,-0.117 0.046,-0.26 -0.035,-0.362ZM17.168,1.235l-9.748,6.397l-5.965,-2.007l15.713,-4.39ZM7.234,12.584l0.448,-3.685l1.479,2.17l-1.927,1.515ZM11.966,14.022l-4.041,-5.93l10.419,-6.837l-6.378,12.767Z" style="fill:#1c39bb;"/></svg>